<?xml version="1.0" encoding="utf-8"?>
<svg width="50" height="50" viewBox="0 0 50 50" fill="none" xmlns="http://www.w3.org/2000/svg">
  <g id="time">
    <path id="Oval 38" d="M48 25C48 12.2975 37.7025 2 25 2C12.2975 2 2 12.2975 2 25C2 37.7025 12.2975 48 25 48C37.7025 48 48 37.7025 48 25ZM0 25C0 11.1929 11.1929 0 25 0C38.8071 0 50 11.1929 50 25C50 38.8071 38.8071 50 25 50C11.1929 50 0 38.8071 0 25Z" fill="#000000" />
    <path id="Rectangle 42" d="M13 20L14 20L14 0L12 0L12 18L0 18L0 20L13 20L13 20Z" fill="#000000" fill-rule="evenodd" transform="translate(12 8)" />
  </g>
</svg>