<?xml version="1.0" encoding="utf-8"?>
<svg width="50" height="50" viewBox="0 0 50 50" fill="none" xmlns="http://www.w3.org/2000/svg">
  <g id="social_facebook_fill">
    <path id="Combined Shape" d="M50 4C50 1.79056 48.2094 0 46 0L4 0C1.79056 0 0 1.79056 0 4L0 46C0 48.2094 1.79056 50 4 50L46 50C48.2094 50 50 48.2094 50 46L50 4ZM34.2798 28.8419L34.2798 48L26.5028 48L26.5028 28.8419L20 28.8419L20 21.3756L26.5028 21.3756L26.5028 15.8694C26.5028 9.47942 30.4392 6 36.1889 6C38.9429 6 41.3099 6.20334 42 6.29417L42 12.972L38.012 12.9739C34.8852 12.9739 34.2798 14.4469 34.2798 16.6086L34.2798 21.3756L41.7371 21.3756L40.766 28.8419L34.2798 28.8419Z" fill="#000000" fill-rule="evenodd" />
  </g>
</svg>