<?xml version="1.0" encoding="utf-8"?>
<svg width="50" height="50" viewBox="0 0 50 50" fill="none" xmlns="http://www.w3.org/2000/svg">
  <g id="social_instagram_fill">
    <path id="Combined Shape" d="M50 14C50 6.26696 43.733 0 36 0L14 0C6.26696 0 0 6.26696 0 14L0 36C0 43.733 6.26696 50 14 50L36 50C43.733 50 50 43.733 50 36L50 14ZM38.5 9C37.1193 9 36 10.1193 36 11.5C36 12.8807 37.1193 14 38.5 14C39.8807 14 41 12.8807 41 11.5C41 10.1193 39.8807 9 38.5 9ZM25 12C17.8203 12 12 17.8203 12 25C12 32.1797 17.8203 38 25 38C32.1797 38 38 32.1797 38 25C38 17.8203 32.1797 12 25 12ZM36 25C36 18.9249 31.0751 14 25 14C18.9249 14 14 18.9249 14 25C14 31.0751 18.9249 36 25 36C31.0751 36 36 31.0751 36 25Z" fill="#000000" fill-rule="evenodd" />
  </g>
</svg>