<?xml version="1.0" encoding="utf-8"?>
<svg width="50" height="50.001" viewBox="0 0 50 50.001" fill="none" xmlns="http://www.w3.org/2000/svg">
  <g id="social_linkedin_fill">
    <g id="Group 5">
      <path id="Fill 4" d="M42.6081 42.6067L35.1926 42.6067L35.1926 31.0023C35.1926 28.2355 35.1454 24.6757 31.3398 24.6757C27.4799 24.6757 26.891 27.691 26.891 30.805L26.891 42.6067L19.4839 42.6067L19.4839 18.745L26.5924 18.745L26.5924 22.0076L26.6952 22.0076C27.6841 20.1311 30.1036 18.1533 33.7107 18.1533C41.2206 18.1533 42.6081 23.0937 42.6081 29.5203L42.6081 42.6067L42.6081 42.6067ZM11.1225 15.4852C8.74052 15.4852 6.81963 13.5587 6.81963 11.1836C6.81963 8.80997 8.74052 6.88352 11.1225 6.88352C13.4948 6.88352 15.4199 8.80997 15.4199 11.1836C15.4199 13.5587 13.4948 15.4852 11.1225 15.4852L11.1225 15.4852ZM7.40854 42.6067L14.8324 42.6067L14.8324 18.745L7.40854 18.745L7.40854 42.6067ZM46.3013 0L3.6876 0C1.65282 0 0 1.61393 0 3.60566L0 46.393C0 48.3847 1.65282 50.0014 3.6876 50.0014L46.3013 50.0014C48.3402 50.0014 50 48.3847 50 46.393L50 3.60566C50 1.61393 48.3402 0 46.3013 0L46.3013 0Z" fill="#000000" fill-rule="evenodd" />
    </g>
  </g>
</svg>