<?xml version="1.0" encoding="utf-8"?>
<svg width="43.063" height="43.391" viewBox="0 0 43.063 43.391" fill="none" xmlns="http://www.w3.org/2000/svg">
  <g id="phone">
    <path id="Rectangle 57 Copy" d="M2.02964 7.04041C2.04759 7.27907 2.12673 7.81773 2.3093 8.62293C2.62579 10.0188 3.13025 11.6148 3.86516 13.3783C5.99458 18.488 9.55884 23.8729 14.9087 29.2749C20.2156 34.6337 25.4507 38.0482 30.3811 39.9266C32.0819 40.5746 33.6172 40.9868 34.9578 41.2122C35.7346 41.3428 36.2565 41.3835 36.493 41.3827C36.4904 41.3827 36.6784 41.3906 36.6784 41.3906C36.8592 41.4068 37.3747 41.3119 37.5839 41.2168L37.6938 41.1668L37.809 41.1304C38.0909 41.0414 38.671 40.7168 39.2812 40.0779C39.6603 39.681 39.9928 39.2087 40.2656 38.6495C40.3157 38.5467 40.3906 38.3777 40.4796 38.1662C40.5026 38.1117 40.5026 38.1117 40.5256 38.0563C40.6071 37.8604 40.6928 37.648 40.777 37.4353C40.8276 37.3076 40.866 37.209 40.8978 37.1273C41.3538 35.9958 40.8347 34.4394 39.7867 33.8054L33.3779 29.9288C32.6497 29.4883 31.3046 29.5517 30.6223 30.057L30.0192 30.5035C27.8802 32.0874 24.7517 31.8408 22.892 29.9459L12.9744 19.8408C11.1195 17.9508 10.921 14.8161 12.5185 12.7043L13.3169 11.649C13.7825 11.0335 13.7913 9.8545 13.3359 9.23489L8.55414 2.72806C7.93331 1.88327 6.85453 1.75788 6.0617 2.43513L2.52903 5.4528C2.2178 5.71866 1.94278 6.47032 2.00799 6.86113L2.02964 7.04041ZM1.23002 3.9321L4.76268 0.914423C6.43899 -0.517517 8.85657 -0.237768 10.1658 1.54371L14.9475 8.05054C15.9271 9.38345 15.911 11.5349 14.9119 12.8556L14.1135 13.911C13.1143 15.2318 13.2411 17.2572 14.4018 18.4399L24.3194 28.545C25.4779 29.7254 27.4892 29.8883 28.829 28.8962L29.4321 28.4497C30.7642 27.4632 32.9883 27.3557 34.4131 28.2176L40.8218 32.0941C42.7111 33.2369 43.5747 35.8356 42.7528 37.8749C42.7528 37.8749 42.3138 39.0125 42.0631 39.5263C40.7036 42.3135 38.4114 43.0376 38.4114 43.0376C37.9077 43.2665 37.0474 43.4315 36.5006 43.3827C36.5006 43.3827 26.1339 43.4521 13.4876 30.6823C0.841259 17.9125 0.0352717 7.19033 0.0352717 7.19033C-0.145227 6.10869 0.384239 4.65458 1.23002 3.9321Z" fill="#000000" />
  </g>
</svg>