<?xml version="1.0" encoding="utf-8"?>
<svg width="50" height="50" viewBox="0 0 50 50" fill="none" xmlns="http://www.w3.org/2000/svg">
  <g id="play_round">
    <path id="Oval 30" d="M48 25C48 12.2975 37.7025 2 25 2C12.2975 2 2 12.2975 2 25C2 37.7025 12.2975 48 25 48C37.7025 48 48 37.7025 48 25ZM0 25C0 11.1929 11.1929 0 25 0C38.8071 0 50 11.1929 50 25C50 38.8071 38.8071 50 25 50C11.1929 50 0 38.8071 0 25Z" fill="#fff" />
    <path id="Triangle 5" d="M0 13.9061L0 3.90039Q0 3.77326 0.0082791 3.64639Q0.0165582 3.51953 0.0330813 3.39347Q0.0496043 3.26742 0.0743012 3.14271Q0.0989981 3.01799 0.131764 2.89515Q0.16453 2.77232 0.205225 2.65187Q0.245921 2.53143 0.294374 2.41389Q0.342827 2.29635 0.398831 2.18221Q0.454835 2.06808 0.518153 1.95784Q0.581471 1.84759 0.651834 1.7417Q0.722196 1.63582 0.799305 1.53474Q0.876414 1.43366 0.959942 1.33781Q1.04347 1.24197 1.13306 1.15177Q1.22265 1.06156 1.31793 0.977388Q1.4132 0.893213 1.51376 0.81542Q1.61431 0.737627 1.71972 0.666548Q1.82513 0.595469 1.93494 0.531405Q2.04476 0.467341 2.15851 0.410564Q2.27226 0.353787 2.38947 0.304538Q2.50667 0.255289 2.62684 0.213777Q2.747 0.172266 2.86962 0.138668Q2.99223 0.105069 3.11677 0.0795273Q3.24132 0.0539852 3.36726 0.0366077Q3.4932 0.0192301 3.62 0.0100908Q3.74681 0.000951509 3.87394 8.93027e-05Q4.00107 -0.000772903 4.12799 0.00664563Q4.2549 0.0140642 4.38107 0.029732Q4.50723 0.0453997 4.63211 0.0692503Q4.75699 0.0931008 4.88004 0.125033Q5.0031 0.156965 5.12382 0.196843Q5.24454 0.236721 5.3624 0.284375Q5.48027 0.33203 5.59478 0.387259Q5.70929 0.442488 5.81996 0.505056L14.669 5.50792Q14.7811 5.5713 14.8888 5.64194Q14.9965 5.71258 15.0993 5.79017Q15.2021 5.86776 15.2995 5.95197Q15.397 6.03617 15.4887 6.12662Q15.5803 6.21706 15.6659 6.31336Q15.7514 6.40966 15.8304 6.51139Q15.9093 6.61312 15.9814 6.71984Q16.0535 6.82656 16.1184 6.9378Q16.1833 7.04904 16.2407 7.16433Q16.2982 7.27961 16.3479 7.39843Q16.3975 7.51724 16.4393 7.63908Q16.481 7.76092 16.5146 7.88524Q16.5483 8.00957 16.5736 8.13584Q16.5989 8.26211 16.6159 8.38978Q16.6328 8.51744 16.6413 8.64595Q16.6498 8.77446 16.6498 8.90325Q16.6498 9.03204 16.6413 9.16055Q16.6328 9.28906 16.6159 9.41672Q16.5989 9.54439 16.5736 9.67066Q16.5483 9.79694 16.5146 9.92126Q16.481 10.0456 16.4393 10.1674Q16.3975 10.2893 16.3479 10.4081Q16.2982 10.5269 16.2407 10.6422Q16.1833 10.7575 16.1184 10.8687Q16.0535 10.9799 15.9814 11.0867Q15.9093 11.1934 15.8304 11.2951Q15.7514 11.3968 15.6659 11.4931Q15.5803 11.5894 15.4887 11.6799Q15.397 11.7703 15.2995 11.8545Q15.2021 11.9387 15.0993 12.0163Q14.9965 12.0939 14.8888 12.1646Q14.7811 12.2352 14.669 12.2986L5.81996 17.3014Q5.70929 17.364 5.59478 17.4192Q5.48027 17.4745 5.3624 17.5221Q5.24454 17.5698 5.12382 17.6097Q5.0031 17.6495 4.88004 17.6815Q4.75699 17.7134 4.63211 17.7373Q4.50723 17.7611 4.38107 17.7768Q4.2549 17.7924 4.12799 17.7999Q4.00107 17.8073 3.87394 17.8064Q3.74681 17.8055 3.62 17.7964Q3.4932 17.7873 3.36726 17.7699Q3.24132 17.7525 3.11677 17.727Q2.99223 17.7014 2.86962 17.6678Q2.747 17.6342 2.62684 17.5927Q2.50667 17.5512 2.38947 17.502Q2.27226 17.4527 2.15851 17.3959Q2.04476 17.3392 1.93494 17.2751Q1.82513 17.211 1.71972 17.14Q1.61431 17.0689 1.51376 16.9911Q1.4132 16.9133 1.31793 16.8291Q1.22265 16.7449 1.13306 16.6547Q1.04347 16.5645 0.959942 16.4687Q0.876414 16.3728 0.799305 16.2718Q0.722196 16.1707 0.651834 16.0648Q0.581471 15.9589 0.518153 15.8487Q0.454835 15.7384 0.398831 15.6243Q0.342827 15.5102 0.294374 15.3926Q0.245921 15.2751 0.205225 15.1546Q0.16453 15.0342 0.131764 14.9113Q0.0989981 14.7885 0.0743012 14.6638Q0.0496043 14.5391 0.0330813 14.413Q0.0165582 14.287 0.0082791 14.1601Q0 14.0332 0 13.9061Z" fill="#fff" fill-rule="evenodd" transform="translate(17 13.489)" />
  </g>
</svg>