<?xml version="1.0" encoding="utf-8"?>
<svg width="50" height="40.628" viewBox="0 0 50 40.628" fill="none" xmlns="http://www.w3.org/2000/svg">
  <g id="social_twitter_fill">
    <path id="Shape" d="M15.724 40.6279C34.592 40.6279 44.912 24.9959 44.912 11.4399C44.912 10.9959 44.912 10.5539 44.882 10.1139C46.8897 8.66176 48.6227 6.8637 50 4.80394C48.1278 5.63354 46.1417 6.1776 44.108 6.41794C46.2495 5.1359 47.8522 3.11948 48.618 0.743938C46.6043 1.93885 44.4013 2.78096 42.104 3.23394C38.9242 -0.147273 33.8714 -0.974837 29.7791 1.2153C25.6868 3.40543 23.5725 8.06859 24.622 12.5899C16.3738 12.1764 8.68895 8.28058 3.48 1.87194C0.757246 6.55923 2.14798 12.5557 6.656 15.5659C5.02348 15.5176 3.42656 15.0772 2 14.2819C2 14.3239 2 14.3679 2 14.4119C2.00134 19.2951 5.4435 23.501 10.23 24.4679C8.71974 24.8798 7.13516 24.94 5.598 24.6439C6.9419 28.8228 10.7931 31.6855 15.182 31.7679C11.5495 34.6228 7.06212 36.1726 2.442 36.1679C1.62581 36.1664 0.810408 36.117 0 36.0199C4.69127 39.0305 10.1498 40.6274 15.724 40.6199" fill="#000000" fill-rule="evenodd" />
  </g>
</svg>